<svg xmlns="http://www.w3.org/2000/svg" xmlns:xlink="http://www.w3.org/1999/xlink" version="1.1" id="nipy-svg" x="0px" y="0px"  viewBox="0 0 307.788 307.788" style="enable-background:new 0 0 307.788 307.788;" xml:space="preserve" class="detail convertSvgInline replaced-svg" data-id="27472" data-kw="boy11">
<g>
	<g>
		<path d="M232.876,72.649c-1.512-0.572-3.014-0.746-4.489-0.546c-1.476,0.223-2.802,0.753-3.998,1.603    c-1.181,0.854-2.195,1.939-3.023,3.26c-0.839,1.315-1.362,2.77-1.564,4.319c-0.155,2.444,0.472,4.676,1.88,6.705    c1.398,2.015,3.07,3.39,5.013,4.117c2.609,0.989,5.105,0.846,7.508-0.409c2.397-1.253,4.019-3.123,4.862-5.605    c0.404-1.087,0.564-2.043,0.492-2.843l-0.099,0.262c0.326-2.382-0.108-4.562-1.278-6.556    C237.003,74.971,235.238,73.54,232.876,72.649z"></path>
		<path d="M256.406,55.041c1.16-0.282,2.393-0.616,3.697-0.997c8.812-2.465,15.094-6.411,19.076-11.713    c0.823-0.891,1.683-2.084,2.609-4.072c5.225-11.172-0.181-20.588-0.181-20.588s-2.885-5.049-5.101-7.307    c-3.242-3.288-7.131-5.792-11.677-7.503c-0.761-0.293-1.466-0.536-2.107-0.728c-0.652-0.202-1.269-0.414-1.859-0.632    c-2.402-0.513-4.613-0.917-6.617-1.204c-2.02-0.285-3.967-0.354-5.825-0.254c-1.88,0.117-3.739,0.477-5.604,1.077    c-1.863,0.583-3.801,1.522-5.814,2.783c-0.751,0.482-1.445,1.23-2.076,2.242c-0.616,1.013-1.165,2.159-1.646,3.426    c-0.668,1.771-1.202,3.5-1.601,5.17c-0.389,1.686-0.591,2.799-0.611,3.374c-0.295,1.532-0.108,2.979,0.534,4.321    c0.642,1.352,1.609,2.364,2.895,3.032l-0.125-0.036c1.088,0.704,1.983,1.066,2.693,1.093c0.719,0.031,1.31-0.161,1.796-0.552    c0.487-0.394,0.892-0.96,1.218-1.704c0.326-0.746,0.626-1.6,0.891-2.555c0.17-0.704,0.383-1.393,0.642-2.071    c0.279-0.759,0.688-1.331,1.222-1.709c2.01-2.024,4.417-3.016,7.183-2.98c2.786,0.037,5.427,0.668,7.938,1.908    c3.247,1.603,5.567,3.92,6.985,6.952c1.403,3.04,1.549,6.03,0.436,8.971c-0.544,1.426-1.403,2.62-2.574,3.585    c-1.18,0.95-2.568,1.766-4.184,2.46c-1.6,0.702-3.34,1.289-5.209,1.781c-1.875,0.505-3.749,0.971-5.654,1.416    c-2.444,0.616-4.785,1.248-6.996,1.911c-2.222,0.649-4.189,1.569-5.877,2.755c-1.129,0.435-2.045,1.025-2.76,1.766    c-0.715,0.748-1.295,1.559-1.725,2.449c-0.435,0.914-0.803,1.83-1.113,2.77c-0.306,0.942-0.575,1.843-0.812,2.718    c-0.078,0.456-0.15,0.803-0.244,1.057c-0.072,0.174-0.145,0.381-0.243,0.632c-0.632,1.686-0.859,3.042-0.679,4.075    c0.197,1.041,0.58,1.867,1.181,2.467c0.58,0.603,1.306,1.064,2.145,1.382c0.927,0.35,1.812,0.687,2.651,1.007l1.263,0.479    c1.854,0.699,3.34,1.022,4.474,0.976c1.129-0.06,2.02-0.394,2.688-1.01c0.674-0.619,1.202-1.473,1.621-2.576    c0.44-1.173,0.85-2.509,1.223-3.998l0.082,0.168l0.477-1.266c0.668-0.986,1.549-1.729,2.631-2.175    c1.077-0.466,3.023-1.08,5.814-1.851l-0.171,0.081C254.226,55.587,255.246,55.315,256.406,55.041z"></path>
		<path d="M139.787,34.276c-22.96,0-42.541,11.936-50.489,28.775c-1.999-0.917-4.21-1.463-6.558-1.463    c-8.702,0-13.103,11.936-15.759,21.983c-2.439,9.233-3.653,20.91,5.789,23.703c0,0,17.132-3.92,27.275-12.948    c3.459-3.091,7.892-3.734,11.692-1.072c10.563,7.423,35.134,19.576,80.766,17.178c0,0,2.532-15.25,1.585-30.722    C192.507,54.054,169.776,34.276,139.787,34.276z"></path>
		<path d="M39.572,296.768c1.103,0.191,2.19,0.29,3.265,0.29c9.116,0,17.181-6.55,18.781-15.84    c1.598-9.258,4.264-17.543,7.526-25.005c-0.023,4.013,0.011,8.14,0.179,12.521c-0.127,0.72-0.127,1.104,0.026,1.108v28.401    c0,5.267,4.27,9.544,9.546,9.544h104.184c5.271,0,9.538-4.277,9.538-9.544v-28.438c1.077-24.312-1.549-43.015-5.841-57.379    c23.928-7.488,59.797-32.188,58.699-85.328c-0.218-10.529-8.73-18.973-19.47-18.68c-10.538,0.223-18.906,8.935-18.684,19.47    c0.818,39.835-31.104,48.095-34.879,48.923c-1.497,0.311-2.879,0.834-4.205,1.449c-7.459-7.969-13.722-10.459-13.722-10.459    c20.847-8.316,35.899-28.009,37.536-51.419c-3.816,0.187-7.617,0.303-11.294,0.303c-39.768,0-61.974-11.433-71.678-18.245    c-2.053-1.432-4.368-1.108-6.486,0.769c-10.822,9.634-28.384,13.743-29.129,13.919l-0.886,0.197    c0.482,25.025,16.304,46.248,38.448,54.725c0,0-1.326,0.099-3.469,0.715c-3.218-0.171-6.522,0.383-9.603,1.937    c-2.501,1.264-61.48,31.794-73.957,104.028C22.223,285.107,29.19,294.977,39.572,296.768z"></path>
	</g>
</g>
</svg>
